<?xml version="1.0" encoding="UTF-8"?>
<svg version="1.1" xmlns="http://www.w3.org/2000/svg" width="500" height="500">
<path d="M0 0 C165 0 330 0 500 0 C500 165 500 330 500 500 C335 500 170 500 0 500 C0 335 0 170 0 0 Z " fill="#E9CDC6" transform="translate(0,0)"/>
<path d="M0 0 C1.18019211 0.00141495 2.36038422 0.0028299 3.57633972 0.00428772 C7.29441006 0.00982302 11.01241704 0.02236285 14.73046875 0.03515625 C17.27278558 0.04017963 19.81510337 0.04474106 22.35742188 0.04882812 C28.54429194 0.05977114 34.73112582 0.07644323 40.91796875 0.09765625 C40.35838307 8.68424617 39.5886876 17.11670282 38.3203125 25.625 C37.56152706 32.06585316 37.84679727 38.62421446 37.91796875 45.09765625 C42.44738711 46.13367616 42.44738711 46.13367616 46.97688293 47.1693573 C50.93865064 48.07506759 54.9002607 48.98145674 58.86157227 49.88916016 C65.90372039 51.50181889 72.94616712 53.11090802 80 54.671875 C81.00724121 54.89593018 82.01448242 55.11998535 83.05224609 55.35083008 C84.87322398 55.75476935 86.69512348 56.15458401 88.51806641 56.54956055 C89.31905762 56.727854 90.12004883 56.90614746 90.9453125 57.08984375 C91.62327881 57.2379248 92.30124512 57.38600586 92.99975586 57.53857422 C94.91796875 58.09765625 94.91796875 58.09765625 98.91796875 60.09765625 C98.91796875 82.20765625 98.91796875 104.31765625 98.91796875 127.09765625 C105.84796875 127.42765625 112.77796875 127.75765625 119.91796875 128.09765625 C123.21796875 128.42765625 126.51796875 128.75765625 129.91796875 129.09765625 C129.91796875 212.25765625 129.91796875 295.41765625 129.91796875 381.09765625 C-35.08203125 381.09765625 -200.08203125 381.09765625 -370.08203125 381.09765625 C-370.08203125 347.10765625 -370.08203125 313.11765625 -370.08203125 278.09765625 C-367.44203125 277.76765625 -364.80203125 277.43765625 -362.08203125 277.09765625 C-362.20320313 277.65525635 -362.324375 278.21285645 -362.44921875 278.78735352 C-366.29029479 296.76469741 -367.80088198 310.68972482 -361.08203125 328.09765625 C-360.40921112 330.09559457 -359.74160064 332.09530447 -359.08203125 334.09765625 C-351.7574283 333.15865396 -344.43326563 332.21627034 -337.109375 331.27172852 C-334.62704914 330.95197183 -332.14462985 330.63293948 -329.66210938 330.31469727 C-314.77511714 328.4057231 -299.91259247 326.40703544 -285.08203125 324.09765625 C-285.19768433 322.49482788 -285.19768433 322.49482788 -285.31567383 320.85961914 C-286.60294203 302.37652437 -287.23999249 285.03892032 -282.08203125 267.09765625 C-283.27344727 267.28376465 -284.46486328 267.46987305 -285.69238281 267.66162109 C-298.3781173 269.61811052 -311.08271119 271.24388073 -323.83203125 272.72265625 C-326.61125678 273.04825589 -329.39037673 273.37474659 -332.16949463 273.70126343 C-333.87460669 273.90125541 -335.57980088 274.10054899 -337.28509521 274.29898071 C-341.02241426 274.73425567 -344.75715758 275.18131138 -348.48925781 275.65942383 C-352.72832681 276.17648885 -356.82489988 276.16417393 -361.08203125 276.09765625 C-359.05109365 269.62787806 -356.61125054 263.43238416 -353.89453125 257.22265625 C-353.0908347 255.36211354 -352.28745573 253.50143361 -351.484375 251.640625 C-350.32323258 248.9598136 -349.16104714 246.27946745 -347.99658203 243.60009766 C-343.09416647 232.29056472 -338.74759229 220.88657923 -334.82470703 209.19970703 C-333.97805034 206.80335129 -333.03110618 204.45508097 -332.08203125 202.09765625 C-323.44668522 202.66051078 -314.94129164 203.57899406 -306.38671875 204.875 C-305.23261505 205.04641006 -304.07851135 205.21782013 -302.88943481 205.39442444 C-300.47072908 205.75454121 -298.05234488 206.11682374 -295.63427734 206.48120117 C-291.96002713 207.03470494 -288.28481321 207.58139942 -284.609375 208.12695312 C-282.24343032 208.48007188 -279.87754289 208.8335745 -277.51171875 209.1875 C-275.8862764 209.42979591 -275.8862764 209.42979591 -274.22799683 209.67698669 C-267.4880754 210.69471136 -260.78093206 211.83784267 -254.08203125 213.09765625 C-255.3711227 220.61606988 -258.03117462 226.53724675 -261.64453125 233.22265625 C-262.17812256 234.22804443 -262.71171387 235.23343262 -263.26147461 236.26928711 C-267.04017437 243.32899871 -271.01930082 250.2368335 -275.2421875 257.0390625 C-277.02035968 259.99513218 -278.5830141 262.99221574 -280.08203125 266.09765625 C-279.43057129 266.01725098 -278.77911133 265.9368457 -278.10791016 265.85400391 C-255.49133381 263.08857219 -232.89631021 260.56709162 -210.08203125 261.09765625 C-210.56170783 264.17131201 -211.10262662 267.1825988 -211.8359375 270.20703125 C-215.33986804 285.98318229 -214.27114943 302.02261056 -214.08203125 318.09765625 C-193.62203125 318.09765625 -173.16203125 318.09765625 -152.08203125 318.09765625 C-152.19963827 306.35732151 -152.19963827 306.35732151 -152.35229492 294.61743164 C-152.45152352 282.9459091 -151.80318205 271.26110864 -148.08203125 260.09765625 C-167.88203125 260.09765625 -187.68203125 260.09765625 -208.08203125 260.09765625 C-206.55532275 256.28088501 -205.65527951 254.25126727 -203.25390625 251.20703125 C-202.70395996 250.5013501 -202.15401367 249.79566895 -201.58740234 249.06860352 C-201.00812988 248.33569092 -200.42885742 247.60277832 -199.83203125 246.84765625 C-195.72760419 241.58587294 -191.72898309 236.35750463 -188.23046875 230.6640625 C-187.08203125 229.09765625 -187.08203125 229.09765625 -184.08203125 227.09765625 C-179.16906087 227.36377548 -174.39201026 229.30849753 -169.83203125 231.03515625 C-158.65126399 235.18312311 -148.11173114 236.59114166 -136.2890625 236.48876953 C-134.08400657 236.47267067 -131.88078248 236.48871946 -129.67578125 236.5078125 C-111.53198649 236.53520357 -92.17864068 232.04220764 -78.359375 219.5390625 C-77.25545723 218.40296054 -76.16662334 217.25222202 -75.08203125 216.09765625 C-74.42203125 216.09765625 -73.76203125 216.09765625 -73.08203125 216.09765625 C-72.82035156 215.52273438 -72.55867188 214.9478125 -72.2890625 214.35546875 C-71.00397377 211.95164582 -69.51151707 210.06612923 -67.76953125 207.97265625 C-64.08431891 203.27821563 -61.41154801 198.58406986 -59.08203125 193.09765625 C-58.68757813 192.24816406 -58.293125 191.39867187 -57.88671875 190.5234375 C-54.80493291 182.62501435 -54.69297154 174.9369824 -54.64453125 166.53515625 C-54.63446045 165.39957275 -54.62438965 164.26398926 -54.61401367 163.09399414 C-54.7765107 147.16121798 -59.45818617 134.13754789 -70.484375 122.50390625 C-82.85044332 111.04902192 -98.23821651 104.10536358 -113.76953125 98.09765625 C-122.72112737 94.62313236 -130.55877763 91.16726425 -138.08203125 85.09765625 C-138.84257812 84.5253125 -139.603125 83.95296875 -140.38671875 83.36328125 C-145.44624822 79.3230709 -148.31365589 74.9026604 -151.08203125 69.09765625 C-151.44683594 68.52917969 -151.81164062 67.96070313 -152.1875 67.375 C-154.76500856 60.81304589 -154.23327376 51.03199959 -152.27734375 44.34765625 C-148.91347667 38.40869091 -142.93654762 34.31610519 -136.51171875 32.28515625 C-133.69405243 31.69369277 -130.94992554 31.3475398 -128.08203125 31.09765625 C-127.14101562 31.00355469 -126.2 30.90945312 -125.23046875 30.8125 C-109.85625026 30.03783008 -94.64812408 34.99072272 -81.33203125 42.328125 C-78.6134223 43.80832915 -75.97994369 45.02740449 -73.08203125 46.09765625 C-72.93894531 45.30875 -72.79585938 44.51984375 -72.6484375 43.70703125 C-71.08203125 41.09765625 -71.08203125 41.09765625 -69.28076172 40.41992188 C-66.86430085 39.95300354 -64.46487819 39.62616957 -62.01953125 39.34765625 C-61.19775391 39.23550781 -60.37597656 39.12335938 -59.52929688 39.0078125 C-57.85720188 38.78416486 -56.18304768 38.57546368 -54.50732422 38.38085938 C-53.01946525 38.20712106 -51.53327863 38.01690689 -50.05126953 37.79882812 C-41.96096718 36.68453654 -34.47892639 37.09765625 -26.08203125 37.09765625 C-26.08203125 62.50765625 -26.08203125 87.91765625 -26.08203125 114.09765625 C-20.80203125 114.09765625 -15.52203125 114.09765625 -10.08203125 114.09765625 C-5.44450035 114.33903383 -0.83432116 114.61589167 3.79296875 114.97265625 C4.90542969 115.05128906 6.01789063 115.12992187 7.1640625 115.2109375 C16.79309934 115.92298232 26.30369946 117.02940411 35.91796875 118.09765625 C35.91796875 94.00765625 35.91796875 69.91765625 35.91796875 45.09765625 C24.56803189 42.7614865 24.56803189 42.7614865 13.19921875 40.96484375 C11.91660156 40.79855469 10.63398438 40.63226563 9.3125 40.4609375 C8.02730469 40.29980469 6.74210937 40.13867188 5.41796875 39.97265625 C4.13277344 39.80378906 2.84757812 39.63492188 1.5234375 39.4609375 C-6.40108025 38.44946639 -14.27463015 37.76131249 -22.24804688 37.34814453 C-25.08203125 37.09765625 -25.08203125 37.09765625 -26.08203125 36.09765625 C-26.17054654 33.50406303 -26.1972907 30.93725934 -26.1796875 28.34375 C-26.17756508 27.18058006 -26.17756508 27.18058006 -26.17539978 25.99391174 C-26.1697847 23.50762131 -26.15722971 21.02141965 -26.14453125 18.53515625 C-26.13951819 16.85351692 -26.13495495 15.17187619 -26.13085938 13.49023438 C-26.11981038 9.35934059 -26.1025357 5.22851349 -26.08203125 1.09765625 C-17.36744733 0.31052282 -8.74795232 -0.04052705 0 0 Z " fill="#EEE0D1" transform="translate(370.08203125,118.90234375)"/>
<path d="M0 0 C51.48 0 102.96 0 156 0 C156 41.25 156 82.5 156 125 C183.225 124.505 183.225 124.505 211 124 C208.14637526 126.14021855 205.96589578 127.58525487 202.875 129.125 C189.13240184 136.65178485 179.04316485 149.25232956 174.1875 164 C172.22435459 171.8748901 172.59328135 179.95396413 173 188 C173.08701172 189.72476563 173.08701172 189.72476563 173.17578125 191.484375 C174.7201356 206.44414484 183.18193592 219.72223786 194.61645508 229.15942383 C201.8767957 234.71247679 209.26938398 239.12629094 217.4375 243.25 C218.56220703 243.83523437 219.68691406 244.42046875 220.84570312 245.0234375 C227.46616882 248.41542796 234.12722714 251.29589673 241.09594727 253.89160156 C253.52634274 258.63594755 265.2736527 265.31100246 271.19946289 277.73828125 C272.65803474 281.8591137 272.67854047 285.915584 272.625 290.25 C272.61662109 291.17441895 272.60824219 292.09883789 272.59960938 293.05126953 C272.27748179 302.82304404 269.33191057 310.08190051 262.3125 317 C251.51130927 325.28834335 238.81657938 325.25137089 225.84375 323.59765625 C211.24881781 320.46138571 197.32737224 312.9103728 184.34375 305.78515625 C181.13438588 303.95155472 181.13438588 303.95155472 178 303 C177.73960937 303.83015625 177.47921875 304.6603125 177.2109375 305.515625 C175.87361897 309.36365122 174.28747778 313.03444892 172.625 316.75 C169.95218033 322.78454625 167.38260312 328.84370872 165 335 C166.32 335.66 167.64 336.32 169 337 C169 337.33 169 337.66 169 338 C151.45782007 336.98783247 134.29652135 335.10862267 117 332 C117.02094727 331.35264893 117.04189453 330.70529785 117.06347656 330.03833008 C117.71932161 306.5005496 113.54159134 286.49041909 106.57910156 264.09692383 C106 262 106 262 106 260 C105.43764648 260.01522705 104.87529297 260.0304541 104.29589844 260.04614258 C96.87608502 260.15543242 89.62207603 259.47498274 82.25 258.6875 C80.28310894 258.48391384 78.31621692 258.28033663 76.34927368 258.07725525 C74.30072589 257.86515961 72.25240846 257.65093173 70.20410156 257.43652344 C63.85188579 256.77402241 57.49631668 256.14491969 51.14099121 255.51309204 C47.92980604 255.19357766 44.71881782 254.87209729 41.5078125 254.55078125 C40.44191895 254.44419189 39.37602539 254.33760254 38.27783203 254.2277832 C37.15030518 254.11503052 37.15030518 254.11503052 36 254 C36.18175781 255.4708606 36.18175781 255.4708606 36.3671875 256.97143555 C40.39364595 289.84970518 40.39364595 289.84970518 40.375 302.1875 C40.37693359 303.36542114 40.37693359 303.36542114 40.37890625 304.56713867 C40.27609384 309.89293825 39.31799452 314.84708128 38 320 C35.04120245 319.88263642 32.08319941 319.75608712 29.125 319.625 C28.32191406 319.5940625 27.51882812 319.563125 26.69140625 319.53125 C17.69921697 319.119394 9.01931793 318.00214644 0 317 C0 212.39 0 107.78 0 0 Z " fill="#EEE0D1" transform="translate(0,0)"/>
<path d="M0 0 C0.85980469 0.01675781 1.71960938 0.03351563 2.60546875 0.05078125 C22.69119896 1.1684292 42.40848054 8.72301329 60 18 C59.40638629 22.02646726 58.12070865 24.9329847 56.09375 28.44921875 C55.51496094 29.46177734 54.93617188 30.47433594 54.33984375 31.51757812 C53.73269531 32.56365234 53.12554687 33.60972656 52.5 34.6875 C51.30190071 36.77463476 50.10397514 38.86186926 48.90625 40.94921875 C48.37322266 41.87049561 47.84019531 42.79177246 47.29101562 43.7409668 C46.49115363 45.14057403 45.72092713 46.55814575 45 48 C40.98309524 47.39381255 37.95099842 46.09116493 34.375 44.1875 C17.41843525 35.54378773 -2.20329217 30.41345794 -21 36 C-23.24095604 37.15943125 -24.99148197 38.44339853 -27 40 C-27.99 40.33 -28.98 40.66 -30 41 C-31.12516085 42.83284443 -31.12516085 42.83284443 -32 45 C-32.3403125 45.52722656 -32.680625 46.05445313 -33.03125 46.59765625 C-35.71985614 53.26496583 -35.06431043 63.30460456 -33.08984375 70.16015625 C-31.90281265 72.62963896 -30.5987421 74.7780923 -29 77 C-28.62359375 77.59425781 -28.2471875 78.18851562 -27.859375 78.80078125 C-19.39776983 90.44887698 -4.45047666 95.70558478 8.36422729 100.83349609 C30.50324854 109.6957245 49.48869796 120.35390372 60.51953125 142.33984375 C67.126581 158.6744232 66.43438475 180.05478502 59.77734375 196.23828125 C57.36759909 201.53066131 54.50767086 206.36082241 51 211 C50.56429688 211.61617187 50.12859375 212.23234375 49.6796875 212.8671875 C42.28216114 222.47954211 30.93440051 229.2438518 20 234 C19.29359375 234.31582031 18.5871875 234.63164062 17.859375 234.95703125 C7.2379398 239.33945268 -4.18870574 239.43812115 -15.5 239.4375 C-16.62585007 239.44009827 -16.62585007 239.44009827 -17.77444458 239.44274902 C-33.47179856 239.42685233 -46.16348369 236.24690838 -60.828125 230.66796875 C-63.94046229 229.7107571 -66.01029647 229.6967959 -69 231 C-69.68937208 232.6574041 -70.35309052 234.32556567 -71 236 C-72.43286133 238.09301758 -72.43286133 238.09301758 -74.08203125 240.14453125 C-74.68466797 240.90443359 -75.28730469 241.66433594 -75.90820312 242.44726562 C-76.53662109 243.22779297 -77.16503906 244.00832031 -77.8125 244.8125 C-79.0519768 246.3576367 -80.28770222 247.90579066 -81.51953125 249.45703125 C-82.34094604 250.4776062 -82.34094604 250.4776062 -83.17895508 251.51879883 C-85.64533137 254.87927372 -87.79073684 258.46517895 -90 262 C-70.2 262 -50.4 262 -30 262 C-32 276 -32 276 -33 282 C-33.10145957 283.3877915 -33.17264515 284.77832198 -33.20532227 286.16943359 C-33.22550415 286.9402124 -33.24568604 287.71099121 -33.26647949 288.50512695 C-33.28295532 289.29491943 -33.29943115 290.08471191 -33.31640625 290.8984375 C-33.34438293 292.00989136 -33.34438293 292.00989136 -33.3729248 293.14379883 C-33.44075007 295.88742192 -33.50119872 298.63122339 -33.5625 301.375 C-33.706875 307.52125 -33.85125 313.6675 -34 320 C-54.46 320 -74.92 320 -96 320 C-98.27386268 281.34433443 -98.27386268 281.34433443 -92 263 C-97.97372033 263.38453127 -103.94697852 263.77545757 -109.91992188 264.171875 C-111.94455108 264.30539525 -113.96928895 264.43727982 -115.99414062 264.56738281 C-126.95572499 265.27283131 -137.84176033 266.08038045 -148.72265625 267.60742188 C-153.16280927 268.13928764 -157.53694753 268.19311285 -162 268 C-160.74874051 263.89493811 -159.23505748 260.39992824 -157.0234375 256.7265625 C-156.43852539 255.74421631 -155.85361328 254.76187012 -155.25097656 253.74975586 C-154.6319043 252.71858643 -154.01283203 251.68741699 -153.375 250.625 C-149.15191785 243.48543959 -144.96875154 236.3551553 -141.25 228.9375 C-140.93981934 228.32664551 -140.62963867 227.71579102 -140.31005859 227.08642578 C-138.36724025 223.12661882 -137.10421698 219.24907025 -136 215 C-137.51787109 214.87044922 -137.51787109 214.87044922 -139.06640625 214.73828125 C-150.93424754 213.64255613 -162.65393791 211.83774707 -174.40844727 209.89672852 C-184.57224231 208.21885267 -194.74840303 206.68914566 -204.953125 205.28320312 C-207.97024201 204.8657585 -210.98507905 204.43299397 -214 204 C-214.16435547 204.73065674 -214.32871094 205.46131348 -214.49804688 206.21411133 C-216.2549824 213.66263711 -218.5919334 220.61620994 -221.5 227.6875 C-221.93070801 228.7511377 -222.36141602 229.81477539 -222.80517578 230.91064453 C-226.44385112 239.8210191 -230.28955622 248.63843137 -234.24414062 257.4128418 C-237.12949759 263.84845636 -239.68286298 270.3384346 -242 277 C-230.47016312 276.44361952 -219.07253179 275.30059882 -207.61767578 273.89819336 C-204.87197274 273.56212947 -202.12554095 273.23265101 -199.37890625 272.90429688 C-190.53632601 271.83992879 -181.71530457 270.72070009 -172.91455078 269.34741211 C-169.91517807 268.98988929 -167.01764587 268.93955712 -164 269 C-164.51062993 272.91482944 -165.15560244 276.71571856 -166.02734375 280.56640625 C-167.14184262 286.10438969 -167.26380671 291.42924126 -167.1875 297.0625 C-167.17891968 298.55064209 -167.17891968 298.55064209 -167.17016602 300.06884766 C-167.10202341 307.07345693 -166.81523063 314.05171239 -166.26831055 321.03540039 C-166.1439781 322.68801155 -166.06666772 324.3440599 -166 326 C-167.54464679 327.54464679 -169.19961017 327.41993992 -171.34179688 327.72436523 C-172.26786743 327.85797958 -173.19393799 327.99159393 -174.14807129 328.1292572 C-175.16139526 328.27093826 -176.17471924 328.41261932 -177.21875 328.55859375 C-178.7875592 328.78241478 -178.7875592 328.78241478 -180.38806152 329.01075745 C-182.61731291 329.32792273 -184.84685677 329.64303786 -187.07666016 329.95629883 C-190.43069821 330.42775861 -193.7837645 330.90566583 -197.13671875 331.38476562 C-206.61310185 332.73241624 -216.09249239 334.06114266 -225.59375 335.22265625 C-226.84865234 335.37613525 -228.10355469 335.52961426 -229.39648438 335.68774414 C-233.29793162 336.0258167 -237.08611718 336.05375916 -241 336 C-250.27937634 316.70769979 -250.2109683 301.48810429 -245 281 C-244.67 280.34 -244.34 279.68 -244 279 C-246.64 279.33 -249.28 279.66 -252 280 C-252 253.6 -252 227.2 -252 200 C-238.5 200 -238.5 200 -233.140625 200.65625 C-231.4390625 200.85927734 -231.4390625 200.85927734 -229.703125 201.06640625 C-228.56359375 201.20949219 -227.4240625 201.35257813 -226.25 201.5 C-225.0640625 201.64308594 -223.878125 201.78617188 -222.65625 201.93359375 C-219.76999852 202.28273707 -216.88469878 202.63829033 -214 203 C-212.0147927 186.95824424 -212.90951698 171.33563931 -214.93261719 155.32666016 C-215.70638578 149.15397173 -216.15751622 143.22189067 -216 137 C-207.23476112 136.77422697 -198.64986216 137.47814891 -189.9375 138.375 C-188.55643297 138.51322315 -187.17532906 138.65107824 -185.79418945 138.78857422 C-177.05034603 139.66440862 -168.31256349 140.59376769 -159.58203125 141.59375 C-155.0585269 142.10677557 -150.53126488 142.5614905 -146 143 C-142.13730732 154.61382933 -138.8245209 166.15616668 -136.390625 178.15380859 C-136.0719582 179.65990755 -135.69983457 181.15461362 -135.3125 182.64453125 C-132.85456935 192.39090904 -132.48109874 205.22666311 -135 215 C-124.75623341 216.27671578 -114.49728108 217.38460585 -104.22662354 218.41952515 C-102.86974508 218.55625271 -101.51293298 218.6936404 -100.15618896 218.83169556 C-98.22283686 219.02800961 -96.28915732 219.22109076 -94.35546875 219.4140625 C-93.22778076 219.5270166 -92.10009277 219.6399707 -90.93823242 219.75634766 C-87.82700001 220.0550941 -87.82700001 220.0550941 -84 220 C-84.99 219.34 -85.98 218.68 -87 218 C-86.4386048 212.11502959 -84.08356511 207.29058315 -81.625 202 C-81.22539062 201.1234375 -80.82578125 200.246875 -80.4140625 199.34375 C-78.35777069 194.85237578 -76.24376399 190.40067259 -74 186 C-70.81348353 186.6655469 -68.20984311 187.79717887 -65.32421875 189.29296875 C-63.96925293 189.98724976 -63.96925293 189.98724976 -62.58691406 190.69555664 C-61.63010742 191.18789795 -60.67330078 191.68023926 -59.6875 192.1875 C-41.53549277 201.37795699 -22.21762166 210.37481554 -1.41796875 205.08984375 C6.59596566 201.95483293 12.64141356 197.99145199 16.9375 190.4375 C19.26333468 184.81995245 19.52898686 179.37765757 19.625 173.375 C19.64812256 172.49255615 19.67124512 171.6101123 19.69506836 170.70092773 C19.59734339 162.4589422 16.38798749 156.63573835 11.125 150.4375 C3.32725446 143.17522197 -7.39686033 139.1660933 -17.125 135.1875 C-32.92349801 128.70511323 -48.04596957 121.25418028 -61 110 C-61.67933594 109.443125 -62.35867187 108.88625 -63.05859375 108.3125 C-72.3215909 100.06038672 -78.87735866 86.11881962 -79.8671875 73.83203125 C-79.91101563 72.89746094 -79.95484375 71.96289062 -80 71 C-80.03254883 70.35853027 -80.06509766 69.71706055 -80.09863281 69.05615234 C-80.83357931 52.56439842 -77.85430583 38.64468824 -66.75 25.9375 C-65.18196914 24.27708107 -63.59895051 22.63066523 -62 21 C-61.33355469 20.29746094 -60.66710937 19.59492188 -59.98046875 18.87109375 C-44.03121601 3.28778945 -21.37889093 -0.50844474 0 0 Z " fill="#E1AFB7" transform="translate(252,117)"/>
<path d="M0 0 C1.18019211 0.00141495 2.36038422 0.0028299 3.57633972 0.00428772 C7.29441006 0.00982302 11.01241704 0.02236285 14.73046875 0.03515625 C17.27278558 0.04017963 19.81510337 0.04474106 22.35742188 0.04882812 C28.54429194 0.05977114 34.73112582 0.07644323 40.91796875 0.09765625 C40.35838307 8.68424617 39.5886876 17.11670282 38.3203125 25.625 C37.56152706 32.06585316 37.84679727 38.62421446 37.91796875 45.09765625 C42.44738711 46.13367616 42.44738711 46.13367616 46.97688293 47.1693573 C50.93865064 48.07506759 54.9002607 48.98145674 58.86157227 49.88916016 C65.90372039 51.50181889 72.94616712 53.11090802 80 54.671875 C81.00724121 54.89593018 82.01448242 55.11998535 83.05224609 55.35083008 C84.87322398 55.75476935 86.69512348 56.15458401 88.51806641 56.54956055 C89.31905762 56.727854 90.12004883 56.90614746 90.9453125 57.08984375 C91.62327881 57.2379248 92.30124512 57.38600586 92.99975586 57.53857422 C94.91796875 58.09765625 94.91796875 58.09765625 98.91796875 60.09765625 C98.91796875 82.20765625 98.91796875 104.31765625 98.91796875 127.09765625 C105.84796875 127.42765625 112.77796875 127.75765625 119.91796875 128.09765625 C123.21796875 128.42765625 126.51796875 128.75765625 129.91796875 129.09765625 C129.91796875 150.87765625 129.91796875 172.65765625 129.91796875 195.09765625 C120.34796875 195.09765625 110.77796875 195.09765625 100.91796875 195.09765625 C103.17784388 208.1656298 106.03155664 220.9558102 109.35546875 233.78515625 C109.55292694 234.54742523 109.75038513 235.30969421 109.9538269 236.09506226 C112.51222432 245.94043704 115.14740113 255.75928613 118.04296875 265.51171875 C119.06384737 269.69549811 119.54604316 273.8143948 119.91796875 278.09765625 C112.46194277 277.54091317 105.19846772 276.55610446 97.85546875 275.16015625 C96.93958984 274.99064453 96.02371094 274.82113281 95.08007812 274.64648438 C90.80459053 273.85069298 86.53614731 273.02557859 82.2734375 272.1640625 C74.96117145 270.69148851 67.62509808 269.34203683 60.29296875 267.97265625 C58.79686439 267.69276506 57.30077056 267.41281756 55.8046875 267.1328125 C52.17590233 266.45377851 48.54697562 265.77550449 44.91796875 265.09765625 C44.58796875 266.41765625 44.25796875 267.73765625 43.91796875 269.09765625 C43.84803711 268.36168213 43.77810547 267.62570801 43.70605469 266.86743164 C43.3642952 263.2979131 43.01716244 259.7289555 42.66796875 256.16015625 C42.6033847 255.49904846 42.53880066 254.83794067 42.47225952 254.15679932 C41.68545852 246.15195434 40.82892175 238.16079773 39.828125 230.1796875 C39.73689362 229.44913651 39.64566223 228.71858551 39.55166626 227.96589661 C39.10831428 224.43153941 38.65505637 220.89879519 38.18847656 217.36743164 C37.19396395 209.55818131 36.6773217 201.96985747 36.91796875 194.09765625 C79.92637088 193.89126672 79.92637088 193.89126672 99.91796875 195.09765625 C99.77504395 194.17863525 99.63211914 193.25961426 99.48486328 192.31274414 C97.54829573 178.73297973 97.69146518 165.22568976 97.79296875 151.53515625 C97.8030248 149.15560275 97.81214598 146.77604511 97.8203125 144.39648438 C97.84210363 138.63011627 97.87537063 132.86390628 97.91796875 127.09765625 C96.96414307 126.98953613 96.01031738 126.88141602 95.02758789 126.77001953 C82.44907112 125.32623071 69.90336816 123.65959071 57.35546875 121.97265625 C46.74390625 120.54953125 46.74390625 120.54953125 35.91796875 119.09765625 C35.91796875 143.51765625 35.91796875 167.93765625 35.91796875 193.09765625 C15.45796875 193.09765625 -5.00203125 193.09765625 -26.08203125 193.09765625 C-26.08203125 167.35765625 -26.08203125 141.61765625 -26.08203125 115.09765625 C-41.81304262 115.77143607 -41.81304262 115.77143607 -56.78027344 118.06738281 C-71.95608278 121.1373159 -71.95608278 121.1373159 -77.1640625 118.63671875 C-80.37327353 116.31785603 -83.1808444 113.78763032 -86.08203125 111.09765625 C-88.32548302 109.67371781 -90.48977169 108.38706925 -92.83203125 107.16015625 C-93.73127319 106.6801416 -93.73127319 106.6801416 -94.64868164 106.19042969 C-100.82692128 103.0168311 -107.29865106 100.60067386 -113.76953125 98.09765625 C-122.72112737 94.62313236 -130.55877763 91.16726425 -138.08203125 85.09765625 C-138.84257812 84.5253125 -139.603125 83.95296875 -140.38671875 83.36328125 C-145.44624822 79.3230709 -148.31365589 74.9026604 -151.08203125 69.09765625 C-151.44683594 68.52917969 -151.81164062 67.96070313 -152.1875 67.375 C-154.76500856 60.81304589 -154.23327376 51.03199959 -152.27734375 44.34765625 C-148.91347667 38.40869091 -142.93654762 34.31610519 -136.51171875 32.28515625 C-133.69405243 31.69369277 -130.94992554 31.3475398 -128.08203125 31.09765625 C-127.14101562 31.00355469 -126.2 30.90945312 -125.23046875 30.8125 C-109.85625026 30.03783008 -94.64812408 34.99072272 -81.33203125 42.328125 C-78.6134223 43.80832915 -75.97994369 45.02740449 -73.08203125 46.09765625 C-72.93894531 45.30875 -72.79585938 44.51984375 -72.6484375 43.70703125 C-71.08203125 41.09765625 -71.08203125 41.09765625 -69.28076172 40.41992188 C-66.86430085 39.95300354 -64.46487819 39.62616957 -62.01953125 39.34765625 C-61.19775391 39.23550781 -60.37597656 39.12335938 -59.52929688 39.0078125 C-57.85720188 38.78416486 -56.18304768 38.57546368 -54.50732422 38.38085938 C-53.01946525 38.20712106 -51.53327863 38.01690689 -50.05126953 37.79882812 C-41.96096718 36.68453654 -34.47892639 37.09765625 -26.08203125 37.09765625 C-26.08203125 62.50765625 -26.08203125 87.91765625 -26.08203125 114.09765625 C-20.80203125 114.09765625 -15.52203125 114.09765625 -10.08203125 114.09765625 C-5.44450035 114.33903383 -0.83432116 114.61589167 3.79296875 114.97265625 C4.90542969 115.05128906 6.01789063 115.12992187 7.1640625 115.2109375 C16.79309934 115.92298232 26.30369946 117.02940411 35.91796875 118.09765625 C35.91796875 94.00765625 35.91796875 69.91765625 35.91796875 45.09765625 C24.56803189 42.7614865 24.56803189 42.7614865 13.19921875 40.96484375 C11.27529297 40.71541016 11.27529297 40.71541016 9.3125 40.4609375 C8.02730469 40.29980469 6.74210938 40.13867188 5.41796875 39.97265625 C4.13277344 39.80378906 2.84757813 39.63492188 1.5234375 39.4609375 C-6.40108025 38.44946639 -14.27463015 37.76131249 -22.24804688 37.34814453 C-25.08203125 37.09765625 -25.08203125 37.09765625 -26.08203125 36.09765625 C-26.17054654 33.50406303 -26.1972907 30.93725934 -26.1796875 28.34375 C-26.17827255 27.56830338 -26.1768576 26.79285675 -26.17539978 25.99391174 C-26.1697847 23.50762131 -26.15722971 21.02141965 -26.14453125 18.53515625 C-26.13951819 16.85351692 -26.13495495 15.17187619 -26.13085938 13.49023438 C-26.11981038 9.35934059 -26.1025357 5.22851349 -26.08203125 1.09765625 C-17.36744733 0.31052282 -8.74795232 -0.04052705 0 0 Z " fill="#EEE1D1" transform="translate(370.08203125,118.90234375)"/>
<path d="M0 0 C0 25.74 0 51.48 0 78 C20.46 78 40.92 78 62 78 C62 53.58 62 29.16 62 4 C80.4059181 5.15036988 80.4059181 5.15036988 88.609375 6.375 C89.50948303 6.50438965 90.40959106 6.6337793 91.3369751 6.76708984 C93.20229728 7.03640119 95.06719236 7.30868796 96.93164062 7.58398438 C99.7868215 8.00543519 102.64324177 8.41751465 105.5 8.828125 C107.32820198 9.09321968 109.15632995 9.3588253 110.984375 9.625 C111.83223572 9.74794434 112.68009644 9.87088867 113.5536499 9.99755859 C114.34257629 10.11437988 115.13150269 10.23120117 115.94433594 10.3515625 C116.6333197 10.45291504 117.32230347 10.55426758 118.03216553 10.65869141 C120.05318464 11.00922454 122.01689584 11.47828733 124 12 C124.0154612 12.90177223 124.0154612 12.90177223 124.03123474 13.82176208 C124.14071493 20.16649223 124.25516876 26.51111975 124.37231445 32.85571289 C124.41521717 35.21311259 124.4569162 37.57053456 124.49731445 39.92797852 C124.72746386 53.30789914 125.04618148 66.65005177 126 80 C104.98893299 80.20377112 84.00078776 79.5829676 63 79 C63.59996923 84.83377261 64.20466588 90.66704167 64.8125 96.5 C64.94730774 97.79553802 64.94730774 97.79553802 65.08483887 99.11724854 C66.28953953 110.66189337 67.55870892 122.18859674 69.13598633 133.68945312 C69.82324479 138.84846689 70.12078343 143.7942341 70 149 C60.89500347 148.18342008 51.86151109 146.92208964 42.8125 145.63671875 C28.56260172 143.6811476 14.35044794 142.43504479 0 141 C0 161.46 0 181.92 0 203 C-20.79 203 -41.58 203 -63 203 C-63.020625 194.976875 -63.04125 186.95375 -63.0625 178.6875 C-63.071604 176.17729248 -63.08070801 173.66708496 -63.09008789 171.08081055 C-63.0930126 169.05778049 -63.09555984 167.03474984 -63.09765625 165.01171875 C-63.10277222 163.98840454 -63.10788818 162.96509033 -63.11315918 161.9107666 C-63.1139567 155.2203762 -62.72185059 148.65124622 -62 142 C-62.86874756 142.06058594 -63.73749512 142.12117187 -64.63256836 142.18359375 C-83.11930869 143.44972546 -101.45895322 144.33223102 -120 144 C-119.43214667 139.24872088 -118.04212069 135.59637331 -115.9375 131.3125 C-113.63636045 126.85273014 -113.63636045 126.85273014 -113 122 C-112.4016333 121.98541748 -111.8032666 121.97083496 -111.18676758 121.95581055 C-90.08470459 121.38230783 -66.58673219 119.16797803 -50.9375 103.0625 C-50.298125 102.381875 -49.65875 101.70125 -49 101 C-48.34 101 -47.68 101 -47 101 C-46.73832031 100.42507813 -46.47664063 99.85015625 -46.20703125 99.2578125 C-44.92194252 96.85398957 -43.42948582 94.96847298 -41.6875 92.875 C-38.00228766 88.18055938 -35.32951676 83.48641361 -33 78 C-32.60554688 77.15050781 -32.21109375 76.30101562 -31.8046875 75.42578125 C-28.72290166 67.5273581 -28.61094029 59.83932615 -28.5625 51.4375 C-28.5524292 50.3019165 -28.5423584 49.16633301 -28.53198242 47.99633789 C-28.70594218 30.93964485 -34.14439015 18.18660403 -46 6 C-45.67 5.34 -45.34 4.68 -45 4 C-41.30686985 2.95048701 -37.47592533 2.47775477 -33.6875 1.875 C-32.15706055 1.60236328 -32.15706055 1.60236328 -30.59570312 1.32421875 C-20.1025308 -0.37461499 -11.02956052 0 0 0 Z " fill="#E1AFB7" transform="translate(344,234)"/>
<path d="M0 0 C0.85980469 0.01675781 1.71960938 0.03351563 2.60546875 0.05078125 C22.69119896 1.1684292 42.40848054 8.72301329 60 18 C59.40638629 22.02646726 58.12070865 24.9329847 56.09375 28.44921875 C55.51496094 29.46177734 54.93617188 30.47433594 54.33984375 31.51757812 C53.42912109 33.08668945 53.42912109 33.08668945 52.5 34.6875 C51.30190071 36.77463476 50.10397514 38.86186926 48.90625 40.94921875 C48.37322266 41.87049561 47.84019531 42.79177246 47.29101562 43.7409668 C46.49115363 45.14057403 45.72092713 46.55814575 45 48 C40.98309524 47.39381255 37.95099842 46.09116493 34.375 44.1875 C17.41843525 35.54378773 -2.20329217 30.41345794 -21 36 C-23.24095604 37.15943125 -24.99148197 38.44339853 -27 40 C-27.99 40.33 -28.98 40.66 -30 41 C-31.12516085 42.83284443 -31.12516085 42.83284443 -32 45 C-32.3403125 45.52722656 -32.680625 46.05445313 -33.03125 46.59765625 C-35.71985614 53.26496583 -35.06431043 63.30460456 -33.08984375 70.16015625 C-31.90281265 72.62963896 -30.5987421 74.7780923 -29 77 C-28.62359375 77.59425781 -28.2471875 78.18851562 -27.859375 78.80078125 C-19.39776983 90.44887698 -4.45047666 95.70558478 8.36422729 100.83349609 C30.50324854 109.6957245 49.48869796 120.35390372 60.51953125 142.33984375 C67.126581 158.6744232 66.43438475 180.05478502 59.77734375 196.23828125 C57.36759909 201.53066131 54.50767086 206.36082241 51 211 C50.56429687 211.61617187 50.12859375 212.23234375 49.6796875 212.8671875 C42.28216114 222.47954211 30.93440051 229.2438518 20 234 C18.94039062 234.47373047 18.94039062 234.47373047 17.859375 234.95703125 C7.24034209 239.33846149 -4.19031509 239.44370372 -15.5 239.4375 C-16.63033661 239.43810425 -16.63033661 239.43810425 -17.7835083 239.4387207 C-29.85261901 239.40158399 -40.66264726 238.30376185 -52 234 C-53.22348145 233.55793213 -53.22348145 233.55793213 -54.47167969 233.10693359 C-65.8196113 228.98177811 -76.51436943 223.97363196 -87 218 C-86.4386048 212.11502959 -84.08356511 207.29058315 -81.625 202 C-81.22539062 201.1234375 -80.82578125 200.246875 -80.4140625 199.34375 C-78.35777069 194.85237578 -76.24376399 190.40067259 -74 186 C-70.81348353 186.6655469 -68.20984311 187.79717887 -65.32421875 189.29296875 C-64.4209082 189.75582275 -63.51759766 190.21867676 -62.58691406 190.69555664 C-61.1517041 191.4340686 -61.1517041 191.4340686 -59.6875 192.1875 C-41.53549277 201.37795699 -22.21762166 210.37481554 -1.41796875 205.08984375 C6.59596566 201.95483293 12.64141356 197.99145199 16.9375 190.4375 C19.26333468 184.81995245 19.52898686 179.37765757 19.625 173.375 C19.64812256 172.49255615 19.67124512 171.6101123 19.69506836 170.70092773 C19.59734339 162.4589422 16.38798749 156.63573835 11.125 150.4375 C3.32725446 143.17522197 -7.39686033 139.1660933 -17.125 135.1875 C-32.92349801 128.70511323 -48.04596957 121.25418028 -61 110 C-61.67933594 109.443125 -62.35867187 108.88625 -63.05859375 108.3125 C-72.3215909 100.06038672 -78.87735866 86.11881962 -79.8671875 73.83203125 C-79.91101563 72.89746094 -79.95484375 71.96289062 -80 71 C-80.03254883 70.35853027 -80.06509766 69.71706055 -80.09863281 69.05615234 C-80.83357931 52.56439842 -77.85430583 38.64468824 -66.75 25.9375 C-65.18196914 24.27708107 -63.59895051 22.63066523 -62 21 C-61.33355469 20.29746094 -60.66710937 19.59492188 -59.98046875 18.87109375 C-44.03121601 3.28778945 -21.37889093 -0.50844474 0 0 Z " fill="#7A1B4B" transform="translate(252,117)"/>
<path d="M0 0 C51.48 0 102.96 0 156 0 C156 20.46 156 40.92 156 62 C141.04463533 62 126.66579047 61.95205499 111.875 60.5625 C110.31388512 60.42548292 108.75268646 60.28941704 107.19140625 60.15429688 C100.76682834 59.58755273 94.37864575 58.95653904 88 58 C85.74538972 78.35188389 85.78482332 98.55490511 86 119 C81.50117729 118.47136044 77.00293117 117.93811531 72.50512695 117.40087891 C70.97988097 117.21932113 69.45449314 117.03895034 67.92895508 116.85986328 C60.19449281 115.95112108 52.51353316 114.97680797 44.86206055 113.50439453 C38.54961879 112.39192292 32.17113162 111.6728595 25.8125 110.875 C24.36910636 110.69167587 22.92574671 110.50808387 21.48242188 110.32421875 C17.98866684 109.87973082 14.49446891 109.43884474 11 109 C11.3403125 110.15628906 11.680625 111.31257813 12.03125 112.50390625 C16.38536445 127.4469215 20.28840382 142.49503139 24.12207031 157.57763672 C24.86268001 160.46469643 25.62203095 163.3450777 26.3984375 166.22265625 C26.59034668 166.94670654 26.78225586 167.67075684 26.97998047 168.41674805 C27.4490602 170.18317459 27.92711166 171.94721275 28.40625 173.7109375 C29 177 29 177 29 186 C19.43 186 9.86 186 0 186 C0 124.62 0 63.24 0 0 Z " fill="#EEE1D1" transform="translate(0,0)"/>
<path d="M0 0 C20.46 0 40.92 0 62 0 C62 19.14 62 38.28 62 58 C66.455 57.505 66.455 57.505 71 57 C72.99181185 56.9235318 74.98548617 56.88176238 76.97875977 56.88647461 C78.05920059 56.88655014 79.13964142 56.88662567 80.25282288 56.88670349 C81.38755539 56.89186478 82.5222879 56.89702606 83.69140625 56.90234375 C84.87725815 56.9037587 86.06311005 56.90517365 87.28489685 56.90663147 C91.04412439 56.91219491 94.80329069 56.9247406 98.5625 56.9375 C101.12304601 56.94251973 103.68359296 56.9470818 106.24414062 56.95117188 C112.49613589 56.9612982 118.74800001 56.98088073 125 57 C125.33 68.55 125.66 80.1 126 92 C129.135 92.268125 132.27 92.53625 135.5 92.8125 C143.82415471 93.56305404 152.1364772 94.40072346 160.4375 95.375 C161.36949219 95.47659424 162.30148437 95.57818848 163.26171875 95.68286133 C171.58977259 96.69697054 178.65347346 98.77425959 187 101 C187 125.09 187 149.18 187 174 C180.07144071 174 174.00674418 173.90647397 167.25 173.125 C153.19827986 171.71982799 139.09250558 170.90919391 125 170 C125 144.59 125 119.18 125 93 C105.93211009 94.4414821 105.93211009 94.4414821 87 97 C84.66767524 97.06859779 82.33092659 97.10595121 80 97 C80.35191406 96.36835938 80.70382812 95.73671875 81.06640625 95.0859375 C85.25759543 87.49145894 89.16266291 79.7768518 93 72 C92.32324219 71.73832031 91.64648438 71.47664063 90.94921875 71.20703125 C88.18832409 70.07707569 85.49217555 68.84164667 82.78564453 67.58862305 C55.50983216 55.13192626 27.18161495 52.19095651 -2 59 C-1.83923477 58.12439423 -1.67846954 57.24878845 -1.51283264 56.34664917 C-1.05045595 53.32926602 -0.84570526 50.50068567 -0.79467773 47.45361328 C-0.77449585 46.37829346 -0.75431396 45.30297363 -0.73352051 44.19506836 C-0.71704468 43.08139893 -0.70056885 41.96772949 -0.68359375 40.8203125 C-0.66494263 39.78447021 -0.6462915 38.74862793 -0.6270752 37.68139648 C-0.55901829 33.82934721 -0.49871629 29.97716406 -0.4375 26.125 C-0.293125 17.50375 -0.14875 8.8825 0 0 Z " fill="#E1AEB6" transform="translate(219,63)"/>
<path d="M0 0 C8.63534603 0.56285453 17.14073961 1.48133781 25.6953125 2.77734375 C26.8494162 2.94875381 28.0035199 3.12016388 29.19259644 3.29676819 C31.61130217 3.65688496 34.02968637 4.01916749 36.44775391 4.38354492 C40.12200412 4.93704869 43.79721804 5.48374317 47.47265625 6.02929688 C49.83860093 6.38241563 52.20448836 6.73591825 54.5703125 7.08984375 C55.65394073 7.25137436 56.73756897 7.41290497 57.85403442 7.57933044 C64.59395585 8.59705511 71.30109919 9.74018642 78 11 C76.71090855 18.51841363 74.05085663 24.4395905 70.4375 31.125 C69.90390869 32.13038818 69.37031738 33.13577637 68.82055664 34.17163086 C65.04185688 41.23134246 61.06273043 48.13917725 56.83984375 54.94140625 C55.06167157 57.89747593 53.49901715 60.89455949 52 64 C52.97718994 63.87939209 52.97718994 63.87939209 53.97412109 63.75634766 C76.59069744 60.99091594 99.18572104 58.46943537 122 59 C121.52032342 62.07365576 120.97940463 65.08494255 120.24609375 68.109375 C116.75741946 83.81683607 117.73294917 100.00570959 118 116 C116.73744385 116.10546143 115.4748877 116.21092285 114.17407227 116.31958008 C80.52958804 119.10607568 80.52958804 119.10607568 47 123 C45.61445071 103.18169682 44.46075043 84.26607076 50 65 C48.21287598 65.2791626 48.21287598 65.2791626 46.38964844 65.56396484 C33.70391395 67.52045427 20.99932006 69.14622448 8.25 70.625 C5.47077447 70.95059964 2.69165452 71.27709034 -0.08746338 71.60360718 C-1.79257544 71.80359916 -3.49776963 72.00289274 -5.20306396 72.20132446 C-8.94038301 72.63659942 -12.67512633 73.08365513 -16.40722656 73.56176758 C-20.64629556 74.0788326 -24.74286863 74.06651768 -29 74 C-26.9690624 67.53022181 -24.52921929 61.33472791 -21.8125 55.125 C-21.00880345 53.26445729 -20.20542448 51.40377736 -19.40234375 49.54296875 C-18.24120133 46.86215735 -17.07901589 44.1818112 -15.91455078 41.50244141 C-11.01213522 30.19290847 -6.66556104 18.78892298 -2.74267578 7.10205078 C-1.89601909 4.70569504 -0.94907493 2.35742472 0 0 Z " fill="#EEE1D1" transform="translate(38,321)"/>
<path d="M0 0 C15.37421849 -0.77466992 30.58234467 4.17822272 43.8984375 11.515625 C46.61704645 12.99582915 49.25052506 14.21490449 52.1484375 15.28515625 C52.29152344 14.49625 52.43460937 13.70734375 52.58203125 12.89453125 C54.1484375 10.28515625 54.1484375 10.28515625 55.94970703 9.60742188 C58.3661679 9.14050354 60.76559056 8.81366957 63.2109375 8.53515625 C64.03271484 8.42300781 64.85449219 8.31085938 65.70117188 8.1953125 C67.37326687 7.97166486 69.04742107 7.76296368 70.72314453 7.56835938 C72.2110035 7.39462106 73.69719012 7.20440689 75.17919922 6.98632812 C83.26950157 5.87203654 90.75154236 6.28515625 99.1484375 6.28515625 C99.1484375 31.69515625 99.1484375 57.10515625 99.1484375 83.28515625 C104.4284375 83.28515625 109.7084375 83.28515625 115.1484375 83.28515625 C115.1484375 83.61515625 115.1484375 83.94515625 115.1484375 84.28515625 C114.19928467 84.29450195 113.25013184 84.30384766 112.2722168 84.31347656 C107.79298422 84.3644456 103.31457522 84.44709548 98.8359375 84.53515625 C98.02277069 84.54939636 97.20960388 84.56363647 96.37179565 84.57830811 C85.34922715 84.79256002 75.04529889 85.79810415 64.2109375 87.91015625 C52.69506973 90.00746424 52.69506973 90.00746424 48.12890625 87.82421875 C44.87519008 85.51868347 42.06991129 82.99394033 39.1484375 80.28515625 C36.90498573 78.86121781 34.74069706 77.57456925 32.3984375 76.34765625 C31.49919556 75.8676416 31.49919556 75.8676416 30.58178711 75.37792969 C24.40354747 72.2043311 17.93181769 69.78817386 11.4609375 67.28515625 C2.50934138 63.81063236 -5.32830888 60.35476425 -12.8515625 54.28515625 C-13.61210937 53.7128125 -14.37265625 53.14046875 -15.15625 52.55078125 C-20.21577947 48.5105709 -23.08318714 44.0901604 -25.8515625 38.28515625 C-26.21636719 37.71667969 -26.58117187 37.14820313 -26.95703125 36.5625 C-29.53453981 30.00054589 -29.00280501 20.21949959 -27.046875 13.53515625 C-23.68300792 7.59619091 -17.70607887 3.50360519 -11.28125 1.47265625 C-7.53722335 0.68673812 -3.80131389 0.38013139 0 0 Z " fill="#EEE1D1" transform="translate(244.8515625,149.71484375)"/>
<path d="M0 0 C9.57 0 19.14 0 29 0 C29 61.38 29 122.76 29 186 C18.77 186 8.54 186 -2 186 C-0.18071637 169.62644732 5.87730788 155.68403818 15 142 C13.47137329 141.7666394 13.47137329 141.7666394 11.91186523 141.52856445 C-5.31150856 138.89732698 -22.53498493 136.26496112 -39.73898315 133.5093689 C-41.72230404 133.19193282 -43.70599849 132.87683357 -45.68969727 132.56176758 C-46.88006592 132.36993896 -48.07043457 132.17811035 -49.296875 131.98046875 C-50.84906738 131.73139771 -50.84906738 131.73139771 -52.43261719 131.47729492 C-55 131 -55 131 -58 130 C-57.93433838 129.34362549 -57.86867676 128.68725098 -57.80102539 128.01098633 C-56.75640362 116.25731267 -56.65444067 104.47933217 -56.4375 92.6875 C-56.39421854 90.48241521 -56.35060151 88.27733698 -56.30664062 86.07226562 C-56.20055724 80.71491326 -56.09861957 75.35749469 -56 70 C-48.48759402 70.49872547 -41.23529803 71.35861629 -33.875 72.9375 C-32.65103516 73.19176758 -32.65103516 73.19176758 -31.40234375 73.45117188 C-29.75145228 73.79412958 -28.10097908 74.13910677 -26.45092773 74.48608398 C-17.55918698 76.3505241 -8.63377881 77.98153725 0.3125 79.5625 C2.78784425 80.0008289 5.263108 80.43961277 7.73828125 80.87890625 C8.82149658 81.0704126 9.90471191 81.26191895 11.02075195 81.45922852 C13.6873388 81.94324801 16.34455018 82.4585797 19 83 C15.051141 66.02483985 15.051141 66.02483985 10.5625 49.1875 C8.28892333 41.22950939 6.25520897 33.21703416 4.25 25.1875 C3.94392822 23.96377686 3.63785645 22.74005371 3.32250977 21.47924805 C1.69640603 14.9351052 1.69640603 14.9351052 1 12 C0.8050293 11.19602783 0.61005859 10.39205566 0.40917969 9.5637207 C0 7 0 7 0 0 Z " fill="#E1AFB7" transform="translate(471,314)"/>
<path d="M0 0 C20.79 0 41.58 0 63 0 C63.99 7.59 64.98 15.18 66 23 C67.1466927 28.42653291 68.32487826 33.75985468 69.6875 39.125 C70.32392969 41.66752545 70.95043004 44.21211614 71.57421875 46.7578125 C71.84838623 47.8420752 72.12255371 48.92633789 72.4050293 50.04345703 C72.96087535 52.80558082 73.04501454 55.19735086 73 58 C66.21535449 58.74403229 59.45486983 59.24019099 52.63671875 59.53515625 C51.68287796 59.57813339 50.72903717 59.62111053 49.74629211 59.66539001 C47.74213613 59.75493578 45.73791792 59.84309857 43.73364258 59.92993164 C40.70568813 60.06170845 37.67804911 60.19949883 34.65039062 60.33789062 C24.76051667 60.77968325 14.90179167 61.1594967 5 61 C5.10828125 62.75183594 5.10828125 62.75183594 5.21875 64.5390625 C5.85253214 75.65167671 6.11003349 86.74638302 6.125 97.875 C6.12951172 99.1635791 6.13402344 100.4521582 6.13867188 101.77978516 C6.13673828 103.00487793 6.13480469 104.2299707 6.1328125 105.4921875 C6.13168457 106.57870605 6.13055664 107.66522461 6.12939453 108.78466797 C5.9916393 112.20775546 5.48448951 115.6085734 5 119 C-17.11 119.33 -39.22 119.66 -62 120 C-62 101.19 -62 82.38 -62 63 C-53.151875 62.67 -44.30375 62.34 -35.1875 62 C-32.41625732 61.89558594 -29.64501465 61.79117188 -26.78979492 61.68359375 C-24.56169211 61.60140218 -22.33358373 61.5193611 -20.10546875 61.4375 C-18.97419556 61.39431641 -17.84292236 61.35113281 -16.67736816 61.30664062 C-9.78113647 61.05556967 -2.90069549 60.94544434 4 61 C3.91435791 60.22100342 3.82871582 59.44200684 3.74047852 58.6394043 C0.87351081 32.35273688 0.87351081 32.35273688 0.3125 21.5 C0.27648682 20.81639404 0.24047363 20.13278809 0.20336914 19.4284668 C-0.0855426 12.94322037 0 6.5068884 0 0 Z " fill="#E1AEB7" transform="translate(406,0)"/>
<path d="M0 0 C8.09445246 -0.26568225 15.86622745 0.76025476 23.875 1.875 C25.82212891 2.13603516 25.82212891 2.13603516 27.80859375 2.40234375 C34.34941407 3.29337376 40.83789488 4.30904951 47.32421875 5.53125 C53.24321477 6.56815441 59.22220766 7.21612288 65.18554688 7.94335938 C66.16716797 8.06646484 67.14878906 8.18957031 68.16015625 8.31640625 C69.48478882 8.47798218 69.48478882 8.47798218 70.83618164 8.64282227 C73 9 73 9 75 10 C77.49726369 17.62889573 77.86373705 26.18366318 78.80493164 34.1394043 C79.06085922 36.29865677 79.32390703 38.45695364 79.58789062 40.61523438 C81.10406364 53.14774717 82 65.34876268 82 78 C61.54 78 41.08 78 20 78 C21.31244243 95.97953896 21.31244243 95.97953896 22.6328125 113.95849609 C22.79715974 116.23012265 22.96123983 118.50176855 23.125 120.7734375 C23.21136719 121.93141846 23.29773437 123.08939941 23.38671875 124.2824707 C23.85771841 130.86945701 24.11793497 137.39622675 24 144 C19.85395998 143.85970858 15.70822624 143.71175506 11.5625 143.5625 C10.39783203 143.52318359 9.23316406 143.48386719 8.03320312 143.44335938 C6.88916016 143.40146484 5.74511719 143.35957031 4.56640625 143.31640625 C3.00321655 143.26141968 3.00321655 143.26141968 1.40844727 143.20532227 C-2.7396502 142.95544404 -6.86979997 142.45891111 -11 142 C-11 120.55 -11 99.1 -11 77 C-1.43 77 8.14 77 18 77 C16.45303963 66.62671064 16.45303963 66.62671064 14.265625 56.50390625 C14.10701996 55.87118301 13.94841492 55.23845978 13.78500366 54.58656311 C13.279345 52.5769647 12.76497211 50.56972973 12.25 48.5625 C11.89339509 47.15356462 11.53711654 45.74454661 11.18115234 44.33544922 C8.86853222 35.21839666 6.46608962 26.12673698 3.90332031 17.07641602 C2.31925875 11.42991087 1.07620948 5.76464682 0 0 Z " fill="#E1AFB7" transform="translate(11,109)"/>
<path d="M0 0 C20.6971428 -0.11795829 41.32127347 0.01292355 62 1 C63.33595118 7.17010049 64.29456671 13.21321627 64.8125 19.5 C66.52003239 37.56312225 70.61642538 55.41672302 75 73 C67.00109553 73.21658925 59.19854678 72.53656116 51.25 71.6875 C49.28310894 71.48391384 47.31621692 71.28033663 45.34927368 71.07725525 C43.30072589 70.86515961 41.25240846 70.65093173 39.20410156 70.43652344 C32.85188579 69.77402241 26.49631668 69.14491969 20.14099121 68.51309204 C16.92980604 68.19357766 13.71881782 67.87209729 10.5078125 67.55078125 C9.44191895 67.44419189 8.37602539 67.33760254 7.27783203 67.2277832 C6.15030518 67.11503052 6.15030518 67.11503052 5 67 C5.12117188 67.98057373 5.24234375 68.96114746 5.3671875 69.97143555 C9.39364595 102.84970518 9.39364595 102.84970518 9.375 115.1875 C9.37693359 116.36542114 9.37693359 116.36542114 9.37890625 117.56713867 C9.27609384 122.89293825 8.31799452 127.84708128 7 133 C4.04120245 132.88263642 1.08319941 132.75608712 -1.875 132.625 C-2.67808594 132.5940625 -3.48117188 132.563125 -4.30859375 132.53125 C-13.30078303 132.119394 -21.98068207 131.00214644 -31 130 C-31 108.22 -31 86.44 -31 64 C-2 65 -2 65 4 66 C3.9498877 65.40912598 3.89977539 64.81825195 3.84814453 64.20947266 C3.32108435 57.97916716 2.80348209 51.74812402 2.29101562 45.51660156 C2.09935957 43.20065031 1.9054075 40.88488775 1.70898438 38.56933594 C0.61786989 25.68750472 -0.35169376 12.9345148 0 0 Z " fill="#EEE1D1" transform="translate(31,187)"/>
<path d="M0 0 C0 25.74 0 51.48 0 78 C20.46 78 40.92 78 62 78 C62 53.58 62 29.16 62 4 C80.4059181 5.15036988 80.4059181 5.15036988 88.609375 6.375 C89.50948303 6.50438965 90.40959106 6.6337793 91.3369751 6.76708984 C93.20229728 7.03640119 95.06719236 7.30868796 96.93164062 7.58398438 C99.7868215 8.00543519 102.64324177 8.41751465 105.5 8.828125 C107.32820198 9.09321968 109.15632995 9.3588253 110.984375 9.625 C111.83223572 9.74794434 112.68009644 9.87088867 113.5536499 9.99755859 C114.34257629 10.11437988 115.13150269 10.23120117 115.94433594 10.3515625 C116.6333197 10.45291504 117.32230347 10.55426758 118.03216553 10.65869141 C120.05318464 11.00922454 122.01689584 11.47828733 124 12 C124.0154612 12.90177223 124.0154612 12.90177223 124.03123474 13.82176208 C124.14071493 20.16649223 124.25516876 26.51111975 124.37231445 32.85571289 C124.41521717 35.21311259 124.4569162 37.57053456 124.49731445 39.92797852 C124.72746386 53.30789914 125.04618148 66.65005177 126 80 C104.98893299 80.20377112 84.00078776 79.5829676 63 79 C63 80.98 63 82.96 63 85 C62.67 85 62.34 85 62 85 C62 83.02 62 81.04 62 79 C51.69785318 79.0848853 41.39585315 79.17994885 31.09391689 79.28752708 C26.30881509 79.33718606 21.52373217 79.38351519 16.73852539 79.421875 C12.10887743 79.45911632 7.47940048 79.50557368 2.8499012 79.55806351 C1.09557194 79.57640354 -0.65879369 79.59158412 -2.4131794 79.60334396 C-13.11057061 79.6775247 -23.42881492 80.28488414 -34 82 C-33.28385417 79.62369792 -32.56770833 77.24739583 -31.8515625 74.87109375 C-31.43003906 73.44990234 -31.43003906 73.44990234 -31 72 C-30.64292969 71.00484375 -30.28585937 70.0096875 -29.91796875 68.984375 C-28.33888087 63.40214751 -28.67172561 57.56384262 -28.6875 51.8125 C-28.67138672 50.65685547 -28.65527344 49.50121094 -28.63867188 48.31054688 C-28.62900522 31.09423159 -34.03442713 18.29963708 -46 6 C-45.67 5.34 -45.34 4.68 -45 4 C-41.30686985 2.95048701 -37.47592533 2.47775477 -33.6875 1.875 C-32.15706055 1.60236328 -32.15706055 1.60236328 -30.59570312 1.32421875 C-20.1025308 -0.37461499 -11.02956052 0 0 0 Z " fill="#E1AFB6" transform="translate(344,234)"/>
<path d="M0 0 C23.43 0 46.86 0 71 0 C69.7503835 7.49769901 68.45290424 14.72585305 66.625 22.0625 C64.90667286 29.12723172 63.25806635 36.19971283 61.75 43.3125 C61.58709473 44.06990479 61.42418945 44.82730957 61.25634766 45.60766602 C60.25429952 50.39055572 59.54872135 55.14381601 59 60 C59.99257813 60.10957031 60.98515625 60.21914062 62.0078125 60.33203125 C63.38024936 60.49183554 64.75264286 60.65201256 66.125 60.8125 C66.77082031 60.88275391 67.41664063 60.95300781 68.08203125 61.02539062 C75.23273382 61.87666474 81.84626206 63.46705616 89 65 C89 86.12 89 107.24 89 129 C64 128 64 128 58 127 C58 104.89 58 82.78 58 60 C43.03616028 56.47862279 43.03616028 56.47862279 28.0625 53 C26.96365479 52.74581299 25.86480957 52.49162598 24.73266602 52.22973633 C19.61595288 51.04947271 14.49738433 49.88205374 9.3671875 48.76171875 C8.52663818 48.57802734 7.68608887 48.39433594 6.82006836 48.20507812 C5.26955358 47.86825147 3.71831336 47.53474145 2.16625977 47.20507812 C-2.89132576 46.10867424 -2.89132576 46.10867424 -4 45 C-4 30 -4 30 0 0 Z " fill="#E1AFB7" transform="translate(411,119)"/>
<path d="M0 0 C1.5342391 3.06847819 0.67472907 5.60656511 0.22265625 8.9765625 C0.08735756 10.00443375 0.08735756 10.00443375 -0.05067444 11.05307007 C-0.34049324 13.24452915 -0.63889128 15.43472304 -0.9375 17.625 C-1.13533114 19.10929974 -1.33260384 20.59367402 -1.52929688 22.078125 C-2.01305089 25.71963771 -2.50450636 29.36006395 -3 33 C-1.90754974 32.8934182 -1.90754974 32.8934182 -0.79302979 32.78468323 C6.4566379 32.12248675 13.61352961 31.8649876 20.890625 31.90234375 C21.84179199 31.90335083 22.79295898 31.90435791 23.77294922 31.90539551 C27.26531206 31.91055677 30.75765748 31.92451689 34.25 31.9375 C42.0875 31.958125 49.925 31.97875 58 32 C58 52.46 58 72.92 58 94 C37.21 94 16.42 94 -5 94 C-5.020625 85.976875 -5.04125 77.95375 -5.0625 69.6875 C-5.071604 67.17729248 -5.08070801 64.66708496 -5.09008789 62.08081055 C-5.0930126 60.05778049 -5.09555984 58.03474984 -5.09765625 56.01171875 C-5.10277222 54.98840454 -5.10788818 53.96509033 -5.11315918 52.9107666 C-5.1139567 46.2203762 -4.72185059 39.65124622 -4 33 C-4.86874756 33.06058594 -5.73749512 33.12117188 -6.63256836 33.18359375 C-25.11930869 34.44972546 -43.45895322 35.33223102 -62 35 C-61.43214667 30.24872088 -60.04212069 26.59637331 -57.9375 22.3125 C-55.63636045 17.85273014 -55.63636045 17.85273014 -55 13 C-54.4016333 12.98541748 -53.8032666 12.97083496 -53.18676758 12.95581055 C-34.1714379 12.43902016 -16.49948259 10.36014023 0 0 Z " fill="#E1AEB6" transform="translate(286,343)"/>
<path d="M0 0 C4.23970954 1.04434022 8.28935633 2.28888822 12.375 3.8359375 C22.40781481 7.58599938 32.45234346 9.34076716 43.125 9.8984375 C44.35926223 13.60122419 43.41663786 14.90804378 41.7734375 18.29882812 C41.43570313 18.97107422 41.09796875 19.64332031 40.75 20.3359375 C37.96297754 25.93784708 37.96297754 25.93784708 36.125 31.8984375 C37.42010498 31.83785156 38.71520996 31.77726562 40.04956055 31.71484375 C44.91189106 31.48818373 49.77439739 31.26550196 54.63696289 31.04394531 C56.73076193 30.94800434 58.82451359 30.85102298 60.91821289 30.75292969 C63.94925893 30.61110944 66.98046272 30.47318759 70.01171875 30.3359375 C70.92894211 30.29218994 71.84616547 30.24844238 72.79118347 30.20336914 C79.92484778 29.88597147 86.96289734 29.8984375 94.125 29.8984375 C93.795 50.0284375 93.465 70.1584375 93.125 90.8984375 C72.665 90.8984375 52.205 90.8984375 31.125 90.8984375 C31.063125 83.9271875 31.00125 76.9559375 30.9375 69.7734375 C30.91018799 67.60378418 30.88287598 65.43413086 30.85473633 63.19873047 C30.8459536 61.42936759 30.83831394 59.65999852 30.83203125 57.890625 C30.81668335 57.01220947 30.80133545 56.13379395 30.78552246 55.22875977 C30.78223651 47.14751509 32.33333785 41.25952753 34.125 32.8984375 C14.325 32.8984375 -5.475 32.8984375 -25.875 32.8984375 C-24.3482915 29.08166626 -23.44824826 27.05204852 -21.046875 24.0078125 C-20.22195557 22.94929077 -20.22195557 22.94929077 -19.38037109 21.86938477 C-18.80109863 21.13647217 -18.22182617 20.40355957 -17.625 19.6484375 C-13.52057294 14.38665419 -9.52195184 9.15828588 -6.0234375 3.46484375 C-4.38141421 1.22521335 -2.867498 -0.15532281 0 0 Z " fill="#EEE1D1" transform="translate(187.875,346.1015625)"/>
<path d="M0 0 C-0.12117187 0.5576001 -0.24234375 1.1152002 -0.3671875 1.68969727 C-4.20826354 19.66704116 -5.71885073 33.59206857 1 51 C1.67282013 52.99793832 2.34043061 54.99764822 3 57 C10.48953782 56.04377558 17.97848081 55.08299095 25.46704102 54.11914062 C28.0108538 53.79226125 30.55479746 53.46639861 33.09887695 53.14160156 C36.77070024 52.67264392 40.44202615 52.19994519 44.11328125 51.7265625 C45.23769119 51.58376862 46.36210114 51.44097473 47.52058411 51.29385376 C53.62352024 50.50297737 59.66514176 49.56874568 65.70690918 48.39587402 C68.55732888 47.903784 71.29870809 47.79996644 74.1875 47.875 C75.10917969 47.89304687 76.03085938 47.91109375 76.98046875 47.9296875 C77.98013672 47.96449219 77.98013672 47.96449219 79 48 C80.59283618 53.19731459 81.67409423 58.31770691 82.5 63.6875 C82.62673096 64.50404053 82.75346191 65.32058105 82.8840332 66.16186523 C83.80365973 72.28008984 84.55314378 78.40842839 85.1875 84.5625 C85.27128906 85.35809326 85.35507813 86.15368652 85.44140625 86.97338867 C85.99755184 92.72482105 86 98.16001721 86 104 C54.98 104 23.96 104 -8 104 C-8 70.01 -8 36.02 -8 1 C-4 0 -4 0 0 0 Z " fill="#EEE1D1" transform="translate(8,396)"/>
<path d="M0 0 C20.46 0 40.92 0 62 0 C62.66 6.6 63.32 13.2 64 20 C64.4791913 23.42076164 64.9656897 26.74784549 65.625 30.125 C65.78540771 30.96063477 65.94581543 31.79626953 66.11108398 32.65722656 C69.1365118 47.41711717 74.21097832 61.73736846 79 76 C64.20794137 76.39562713 49.5085713 75.32502145 34.76416016 74.26220703 C32.22326442 74.08521118 29.68114195 73.92512742 27.13818359 73.78076172 C25.9105127 73.70744629 24.6828418 73.63413086 23.41796875 73.55859375 C22.32637451 73.49857178 21.23478027 73.4385498 20.11010742 73.37670898 C16.71382399 72.96533719 14.07907607 72.52077664 11 71 C9.72387695 68.32055664 9.72387695 68.32055664 8.98828125 64.91015625 C8.70678223 63.65960449 8.4252832 62.40905273 8.13525391 61.12060547 C7.85990792 59.76812605 7.5856782 58.41541894 7.3125 57.0625 C7.0164385 55.68861316 6.71874258 54.31507754 6.41943359 52.94189453 C2.63538501 35.33043206 0 18.05122036 0 0 Z " fill="#E1AFB7" transform="translate(94,188)"/>
<path d="M0 0 C0.67949707 0.0501123 1.35899414 0.10022461 2.05908203 0.15185547 C23.69210681 1.73161436 45.33732872 2.91363529 67 4 C70.23463692 11.69541627 72.95117682 19.54293515 75.57421875 27.46191406 C76.25849678 29.52562541 76.94928701 31.58708184 77.640625 33.6484375 C78.07851059 34.96341333 78.51602475 36.27851291 78.953125 37.59375 C79.34661133 38.77646484 79.74009766 39.95917969 80.14550781 41.17773438 C81 44 81 44 81 46 C77.65626525 45.44271087 74.96687001 44.64826111 72 43 C71.73960937 43.83015625 71.47921875 44.6603125 71.2109375 45.515625 C69.87361897 49.36365122 68.28747778 53.03444892 66.625 56.75 C63.95218033 62.78454625 61.38260312 68.84370872 59 75 C60.32 75.66 61.64 76.32 63 77 C63 77.33 63 77.66 63 78 C45.45782007 76.98783247 28.29652135 75.10862267 11 72 C11.02094727 71.35264893 11.04189453 70.70529785 11.06347656 70.03833008 C11.71932161 46.5005496 7.54159134 26.49041909 0.57910156 4.09692383 C0 2 0 2 0 0 Z " fill="#EEE1D1" transform="translate(106,260)"/>
<path d="M0 0 C15.1213562 0.63411456 30.17214367 1.76663237 45.25 3.0625 C52.7575 3.701875 60.265 4.34125 68 5 C68 25.46 68 45.92 68 67 C59.98145725 67 52.21883427 66.81691189 44.25 66.25 C43.06438477 66.16637207 41.87876953 66.08274414 40.65722656 65.99658203 C26.36815373 64.90843993 12.1885214 62.98200777 -2 61 C-3.11869363 53.78666347 -3.19180209 46.66609 -3.1875 39.375 C-3.18741943 38.10422607 -3.18733887 36.83345215 -3.18725586 35.52416992 C-3.01159982 6.02319963 -3.01159982 6.02319963 0 0 Z " fill="#E1AFB7" transform="translate(88,58)"/>
<path d="M0 0 C9.9836452 0.70951331 19.91910275 1.69497955 29.86523438 2.80664062 C43.23568458 4.2410469 56.55224501 5.03944607 70 6 C70 26.46 70 46.92 70 68 C49.54 68 29.08 68 8 68 C5.76271186 54.57627119 5.76271186 54.57627119 5.125 48.0625 C4.96441902 46.46345332 4.80285909 44.86450481 4.640625 43.265625 C4.54587891 42.32783203 4.45113281 41.39003906 4.35351562 40.42382812 C3.64639248 33.57528186 2.89686011 26.73121636 2.15423584 19.88644409 C1.87605274 17.32220399 1.59834864 14.75791245 1.32080078 12.19360352 C0.88085058 8.12903464 0.44053254 4.0645058 0 0 Z " fill="#EEE1D1" transform="translate(86,119)"/>
<path d="M0 0 C20.46 0 40.92 0 62 0 C62.28875 4.888125 62.5775 9.77625 62.875 14.8125 C63.48849557 24.94800073 64.21479821 35.03260589 65.38574219 45.12158203 C65.99120486 50.45830298 66.17589717 55.6351362 66 61 C57.94305596 61.89169134 49.99645526 62.13429565 41.89453125 62.09765625 C40.28934631 62.09614563 40.28934631 62.09614563 38.6517334 62.09460449 C34.70531115 62.08942528 30.75890435 62.07546461 26.8125 62.0625 C17.964375 62.041875 9.11625 62.02125 0 62 C0 41.54 0 21.08 0 0 Z " fill="#EEE1D1" transform="translate(344,0)"/>
<path d="M0 0 C20.46 0 40.92 0 62 0 C62 20.46 62 40.92 62 62 C47.04463533 62 32.66579047 61.95205499 17.875 60.5625 C16.31388512 60.42548292 14.75268646 60.28941704 13.19140625 60.15429688 C6.76682834 59.58755273 0.37864575 58.95653904 -6 58 C-6.33 58.66 -6.66 59.32 -7 60 C-7 59.34 -7 58.68 -7 58 C-8.32 57.67 -9.64 57.34 -11 57 C-9.35 57 -7.7 57 -6 57 C-5.89042969 55.94167969 -5.78085938 54.88335937 -5.66796875 53.79296875 C-4.51523443 42.72473393 -3.30471 31.66375472 -2.0534668 20.60620117 C-1.93140869 19.51927979 -1.80935059 18.4323584 -1.68359375 17.3125 C-1.57587646 16.35988281 -1.46815918 15.40726563 -1.35717773 14.42578125 C-0.85632667 9.62199305 -0.43727203 4.80999231 0 0 Z " fill="#EEE1D1" transform="translate(94,0)"/>
<path d="M0 0 C0 20.46 0 40.92 0 62 C-20.46 62 -40.92 62 -62 62 C-63.8125 45 -63.8125 45 -64.36254883 39.74609375 C-65.32096424 30.83581085 -66.61176998 22.099401 -68.4206543 13.3203125 C-68.92151184 10.44982682 -69.12030363 7.9010755 -69 5 C-45.94568768 1.90472519 -23.29544041 0 0 0 Z " fill="#E1AEB6" transform="translate(156,438)"/>
<path d="M0 0 C20.79 0 41.58 0 63 0 C63 20.46 63 40.92 63 62 C42.21 62 21.42 62 0 62 C0 41.54 0 21.08 0 0 Z " fill="#EEE1D1" transform="translate(281,438)"/>
<path d="M0 0 C20.79 0 41.58 0 63 0 C63 20.46 63 40.92 63 62 C42.21 62 21.42 62 0 62 C0 41.54 0 21.08 0 0 Z " fill="#EEE1D1" transform="translate(156,438)"/>
<path d="M0 0 C20.79 0 41.58 0 63 0 C63.020625 7.816875 63.04125 15.63375 63.0625 23.6875 C63.071604 26.12729248 63.08070801 28.56708496 63.09008789 31.08081055 C63.09301392 33.05777939 63.09556085 35.03474885 63.09765625 37.01171875 C63.10277222 38.00320923 63.10788818 38.99469971 63.11315918 40.01623535 C63.11406251 47.44070199 62.57383378 54.5401608 62 62 C41.54 62 21.08 62 0 62 C0 41.54 0 21.08 0 0 Z " fill="#E1AEB7" transform="translate(281,0)"/>
<path d="M0 0 C20.79 0 41.58 0 63 0 C63.061875 12.931875 63.061875 12.931875 63.125 26.125 C63.14320801 28.83734863 63.16141602 31.54969727 63.18017578 34.34423828 C63.18601904 36.50292768 63.19111499 38.66161928 63.1953125 40.8203125 C63.20554443 41.93398193 63.21577637 43.04765137 63.22631836 44.19506836 C63.22857889 54.25215802 63.22857889 54.25215802 61 59 C55.32753348 63.58160757 44.37943692 62.13226052 37.5 62.09765625 C36.54480469 62.09664917 35.58960938 62.09564209 34.60546875 62.09460449 C31.07030012 62.08941067 27.53514873 62.07544968 24 62.0625 C16.08 62.041875 8.16 62.02125 0 62 C0 41.54 0 21.08 0 0 Z " fill="#EEE1D1" transform="translate(156,63)"/>
<path d="M0 0 C13.78822054 0 26.65586451 0.16136691 40.1875 1.875 C41.68020905 2.05187747 43.17304857 2.22765733 44.66601562 2.40234375 C52.49515261 3.33547235 60.26490927 4.45402222 68 6 C67.4290335 12.00704336 66.77738322 18.00064572 66.0625 23.9921875 C65.93427856 25.06790009 65.93427856 25.06790009 65.8034668 26.16534424 C65.4470004 29.1496394 65.08940304 32.13379396 64.72949219 35.11767578 C64.46359096 37.32562291 64.20039735 39.53388095 63.9375 41.7421875 C63.70353516 43.68907471 63.70353516 43.68907471 63.46484375 45.67529297 C62.88096656 51.10743613 62.45371335 56.55543977 62 62 C41.54 62 21.08 62 0 62 C0 41.54 0 21.08 0 0 Z " fill="#E1AEB7" transform="translate(344,438)"/>
<path d="M0 0 C20.46 0 40.92 0 62 0 C62 20.46 62 40.92 62 62 C41.54 62 21.08 62 0 62 C0 41.54 0 21.08 0 0 Z " fill="#E1AEB6" transform="translate(219,438)"/>
<path d="M0 0 C20.46 0 40.92 0 62 0 C62 20.46 62 40.92 62 62 C41.54 62 21.08 62 0 62 C0 41.54 0 21.08 0 0 Z " fill="#EEE2D1" transform="translate(219,0)"/>
<path d="M0 0 C20.79 0 41.58 0 63 0 C63 12.39002268 63 12.39002268 62.44921875 17.3125 C62.32909424 18.39942139 62.20896973 19.48634277 62.08520508 20.60620117 C61.88834106 22.28613159 61.88834106 22.28613159 61.6875 24 C61.55432373 25.16958252 61.42114746 26.33916504 61.28393555 27.54418945 C60.13190883 37.41031633 58.68113975 47.21123592 57 57 C50.27209075 57.13659421 43.85022967 56.63174787 37.18359375 55.7578125 C36.1688649 55.62937958 35.15413605 55.50094666 34.10865784 55.36862183 C30.88424452 54.95932326 27.66088135 54.54233975 24.4375 54.125 C22.30149836 53.85234653 20.16543106 53.58020686 18.02929688 53.30859375 C13.91094414 52.7842772 9.79296185 52.25719859 5.67529297 51.72753906 C-1.54747012 50.79954335 -8.77327509 49.89657621 -16 49 C-14.80232536 45.29422217 -13.50746368 41.70201388 -11.94140625 38.13671875 C-11.55533203 37.24919922 -11.16925781 36.36167969 -10.77148438 35.44726562 C-9.97043073 33.6186892 -9.1683599 31.79055801 -8.36523438 29.96289062 C-3.93707003 19.77295503 -1.74088515 11.31575346 0 0 Z " fill="#E1AFB7" transform="translate(31,0)"/>
<path d="M0 0 C20.79 0 41.58 0 63 0 C63 18.81 63 37.62 63 57 C36.625 57.4375 36.625 57.4375 28.35791016 57.56811523 C26.16828855 57.6062815 23.97867226 57.64475422 21.7890625 57.68359375 C20.67426514 57.70006958 19.55946777 57.71654541 18.41088867 57.73352051 C17.31574951 57.75370239 16.22061035 57.77388428 15.09228516 57.79467773 C13.68663803 57.81799416 13.68663803 57.81799416 12.25259399 57.84178162 C7.82346127 58.05723126 3.41236284 58.55876372 -1 59 C-0.67 39.53 -0.34 20.06 0 0 Z " fill="#EEE1D1" transform="translate(281,63)"/>
<path d="M0 0 C2.87009494 6.74724073 4.3542853 13.8797904 6 21 C6.25394531 22.0916748 6.50789063 23.18334961 6.76953125 24.30810547 C10.04867614 38.60774145 13.15113381 52.26975066 12 67 C13.98 67.495 13.98 67.495 16 68 C-1.59588088 68.52787643 -14.73297837 65.14646526 -30.76904297 57.97705078 C-32.76955697 57.10092285 -34.78178481 56.28869728 -36.81640625 55.49609375 C-38.42322266 54.81740234 -38.42322266 54.81740234 -40.0625 54.125 C-40.98160156 53.75632812 -41.90070313 53.38765625 -42.84765625 53.0078125 C-45.78982676 50.26321061 -45.80389955 47.94042677 -46.41137695 44.04931641 C-47.59993006 37.89210846 -49.96333837 32.02303133 -52.0625 26.125 C-52.75390262 24.16542258 -53.44339116 22.20519226 -54.13121033 20.24435425 C-54.75071929 18.48084176 -55.37533256 16.71912481 -56.00024414 14.95751953 C-56.78291341 12.6421946 -57.46231716 10.38090752 -58 8 C-57.27748047 7.93006836 -56.55496094 7.86013672 -55.81054688 7.78808594 C-37.7172987 6.01076434 -17.89819899 0 0 0 Z " fill="#E1AEB6" transform="translate(231,256)"/>
<path d="M0 0 C0 20.46 0 40.92 0 62 C-20.13 62.33 -40.26 62.66 -61 63 C-61 51.73038516 -61 51.73038516 -60.4140625 47.5703125 C-60.28773438 46.673125 -60.16140625 45.7759375 -60.03125 44.8515625 C-59.8971875 43.95179688 -59.763125 43.05203125 -59.625 42.125 C-59.49867188 41.20203125 -59.37234375 40.2790625 -59.2421875 39.328125 C-59.11328125 38.43867188 -58.984375 37.54921875 -58.8515625 36.6328125 C-58.73635254 35.83762207 -58.62114258 35.04243164 -58.50244141 34.22314453 C-57.54656931 29.99371243 -55.79041817 27.51060508 -52.5 24.75 C-51.8915625 24.22921875 -51.283125 23.7084375 -50.65625 23.171875 C-49 22 -49 22 -47 22 C-46.73832031 21.42894531 -46.47664063 20.85789062 -46.20703125 20.26953125 C-44.44904177 16.96405589 -42.11955186 14.21966143 -39.765625 11.3203125 C-37.98886627 9.12141454 -37.98886627 9.12141454 -36.921875 6.9296875 C-35.17576931 3.61762989 -33.87546711 2.2781626 -30.24609375 1.125 C-20.18924653 -0.55308343 -10.21308363 0 0 0 Z " fill="#EEE1D1" transform="translate(344,313)"/>
<path d="M0 0 C0.33 0 0.66 0 1 0 C1 4.95 1 9.9 1 15 C4.02607422 14.11828125 4.02607422 14.11828125 7.11328125 13.21875 C14.42500361 11.11582719 21.78806858 9.27004422 29.1875 7.5 C30.92870117 7.07654297 30.92870117 7.07654297 32.70507812 6.64453125 C42.76144193 4.22487268 52.87178239 2.0948835 63 0 C63.05304543 1.01904922 63.05304543 1.01904922 63.10716248 2.0586853 C63.47752957 9.16476321 63.8512254 16.27066065 64.22680664 23.37646484 C64.36658618 26.02419626 64.50500634 28.67198871 64.64282227 31.31982422 C64.84169095 35.13781582 65.0436097 38.95563613 65.24609375 42.7734375 C65.3065538 43.94675629 65.36701385 45.12007507 65.42930603 46.32894897 C65.7816143 52.9092145 66.26903018 59.45057079 67 66 C65.88367188 65.45472656 64.76734375 64.90945312 63.6171875 64.34765625 C54.70951316 60.04277846 45.77053136 56.05878719 36.5625 52.4375 C28.25118921 49.12661255 21.07398103 45.56058476 14 40 C12.85337891 39.13955078 12.85337891 39.13955078 11.68359375 38.26171875 C6.6344408 34.21681722 3.76660542 29.80129277 1 24 C0.48095093 23.07634644 0.48095093 23.07634644 -0.04858398 22.1340332 C-1.08661708 19.80571724 -1.24491784 18.27559379 -1.23046875 15.7421875 C-1.22853516 14.95199219 -1.22660156 14.16179687 -1.22460938 13.34765625 C-1.21236328 12.53167969 -1.20011719 11.71570313 -1.1875 10.875 C-1.1865332 9.63943359 -1.1865332 9.63943359 -1.18554688 8.37890625 C-1.14063798 2.28127596 -1.14063798 2.28127596 0 0 Z " fill="#E1AEB6" transform="translate(218,164)"/>
<path d="M0 0 C10.23 0 20.46 0 31 0 C31 38.94 31 77.88 31 118 C25.39 118 19.78 118 14 118 C14.03480469 115.50050781 14.06960938 113.00101562 14.10546875 110.42578125 C14.29248819 93.06024738 14.44608582 76.1073546 11 59 C7.37 59 3.74 59 0 59 C0 58.67 0 58.34 0 58 C3.3 58 6.6 58 10 58 C9.76812988 57.00782471 9.53625977 56.01564941 9.29736328 54.9934082 C8.42396486 51.25023533 7.55704175 47.5055858 6.69189453 43.76049805 C6.31926239 42.15137555 5.94496251 40.54263819 5.56884766 38.93432617 C2.51065356 25.84933305 0 13.52813139 0 0 Z " fill="#EEE1D1" transform="translate(469,0)"/>
<path d="M0 0 C9.57 0 19.14 0 29 0 C29 47.19 29 94.38 29 143 C24.71 142.67 20.42 142.34 16 142 C16.33773438 141.11699219 16.67546875 140.23398437 17.0234375 139.32421875 C23.22208631 122.6451955 24.62809477 107.47886036 20.65625 90.046875 C20 87 20 87 20 84 C18.515 83.505 18.515 83.505 17 83 C17.66 83 18.32 83 19 83 C15.051141 66.02483985 15.051141 66.02483985 10.5625 49.1875 C8.28892333 41.22950939 6.25520897 33.21703416 4.25 25.1875 C3.94392822 23.96377686 3.63785645 22.74005371 3.32250977 21.47924805 C1.69640603 14.9351052 1.69640603 14.9351052 1 12 C0.8050293 11.19602783 0.61005859 10.39205566 0.40917969 9.5637207 C0 7 0 7 0 0 Z " fill="#E1AFB7" transform="translate(471,314)"/>
<path d="M0 0 C15.25092727 4.88781644 31.88764883 10.96227421 40.19921875 25.640625 C42.49610308 30.45752276 42.69013713 34.97676637 42.625 40.25 C42.61243164 41.63662842 42.61243164 41.63662842 42.59960938 43.05126953 C42.27524905 52.89077435 39.30288132 60.14674862 32.1875 67.0625 C26.27191629 71.69995568 20.42785132 73.18090755 13 73 C12.99742187 72.10925781 12.99484375 71.21851563 12.9921875 70.30078125 C12.4084956 50.43580037 7.40433425 30.78845214 1.8293457 11.78833008 C-0.36422051 4.2318955 -0.36422051 4.2318955 0 0 Z " fill="#EDE0D0" transform="translate(230,250)"/>
<path d="M0 0 C10.23 0 20.46 0 31 0 C30.28973393 9.23345886 29.74449665 15.22633608 26.375 23.3125 C26.01889648 24.20549805 25.66279297 25.09849609 25.29589844 26.01855469 C21.67780171 35.01082527 17.82482502 43.91034606 13.74609375 52.703125 C6.96028979 67.42656679 6.94651178 82.96850868 9.5625 98.7734375 C9.98576029 101.89498214 10.07602009 104.85466866 10 108 C6.7 107.67 3.4 107.34 0 107 C0 71.69 0 36.38 0 0 Z " fill="#EEE1D1" transform="translate(0,0)"/>
<path d="M0 0 C-2.60785057 2.04651951 -5.16273578 3.64933332 -8.125 5.125 C-21.83183972 12.63220004 -32.08512037 25.2604781 -36.75 40.0625 C-38.66681045 47.57812968 -38.69139813 55.28495335 -39 63 C-44.28 63 -49.56 63 -55 63 C-55 42.54 -55 22.08 -55 1 C-47.03875 0.835 -39.0775 0.67 -30.875 0.5 C-28.37147949 0.44779297 -25.86795898 0.39558594 -23.28857422 0.34179688 C-21.29394632 0.3007324 -19.29931747 0.2597137 -17.3046875 0.21875 C-16.27738525 0.1971582 -15.25008301 0.17556641 -14.19165039 0.15332031 C-9.46020443 0.05668976 -4.7327585 -0.02821317 0 0 Z " fill="#E0ADB6" transform="translate(211,124)"/>
<path d="M0 0 C2.76060852 2.54085859 4.28611824 5.69556792 6 9 C6.32532715 9.61633301 6.6506543 10.23266602 6.98583984 10.86767578 C16.18452558 28.36854717 16.18452558 28.36854717 18.1875 37.75 C18.34605469 38.46671875 18.50460938 39.1834375 18.66796875 39.921875 C19 42 19 42 19 46 C8.77 46 -1.46 46 -12 46 C-12 31.15 -12 16.3 -12 1 C-3.74499089 -1.06375228 -3.74499089 -1.06375228 0 0 Z " fill="#E1AEB7" transform="translate(12,454)"/>
<path d="M0 0 C6.6 0 13.2 0 20 0 C20 19.8 20 39.6 20 60 C14.39 60 8.78 60 3 60 C3.03480469 57.51210937 3.06960938 55.02421875 3.10546875 52.4609375 C3.29790424 34.65664597 3.06180116 17.60535669 0 0 Z " fill="#E1AFB7" transform="translate(480,58)"/>
<path d="M0 0 C10 0 10 0 14 1 C13.80664062 1.6290625 13.61328125 2.258125 13.4140625 2.90625 C8.44163543 19.25125779 6.73759101 33.70627903 9.5625 50.7734375 C9.98576029 53.89498214 10.07602009 56.85466866 10 60 C6.7 59.67 3.4 59.34 0 59 C0 39.53 0 20.06 0 0 Z " fill="#E1AFB7" transform="translate(0,48)"/>
<path d="M0 0 C2.64 0.33 5.28 0.66 8 1 C8 20.14 8 39.28 8 59 C3.71 58.67 -0.58 58.34 -5 58 C-4.66226562 57.11699219 -4.32453125 56.23398437 -3.9765625 55.32421875 C1.71355426 40.01352885 3.88845469 25.60828301 0.4453125 9.38671875 C-0.15096893 6.1908595 -0.14400242 3.24005448 0 0 Z " fill="#EEE1D1" transform="translate(492,398)"/>
<path d="M0 0 C0.33 0 0.66 0 1 0 C1 2.31 1 4.62 1 7 C24.43 7 47.86 7 72 7 C72 7.33 72 7.66 72 8 C69.36 8 66.72 8 64 8 C64 12.29 64 16.58 64 21 C63.67 21 63.34 21 63 21 C63 16.71 63 12.42 63 8 C42.54 8 22.08 8 1 8 C0.67 8.66 0.34 9.32 0 10 C0 9.34 0 8.68 0 8 C-8.91 8 -17.82 8 -27 8 C-27 7.67 -27 7.34 -27 7 C-18.09 7 -9.18 7 0 7 C0 4.69 0 2.38 0 0 Z " fill="#E9CDC7" transform="translate(93,180)"/>
<path d="M0 0 C0.33 1.32 0.66 2.64 1 4 C2.65 4 4.3 4 6 4 C6 4.33 6 4.66 6 5 C4.35 5 2.7 5 1 5 C0.67 5.99 0.34 6.98 0 8 C0 7.01 0 6.02 0 5 C-5.28 4.67 -10.56 4.34 -16 4 C-16 3.67 -16 3.34 -16 3 C-10.55306686 2.90311779 -5.36095333 2.87137825 0 4 C0 2.68 0 1.36 0 0 Z " fill="#E9CDC7" transform="translate(35,249)"/>
<path d="M0 0 C4.95 1.98 4.95 1.98 10 4 C10 4.33 10 4.66 10 5 C6.7 5.33 3.4 5.66 0 6 C0 4.02 0 2.04 0 0 Z " fill="#DEAEB5" transform="translate(281,158)"/>
<path d="M0 0 C0.66 1.32 1.32 2.64 2 4 C-2.02992782 3.44687265 -6.02022924 2.8441938 -10 2 C-6.3558226 -0.4294516 -4.28758728 -0.16179575 0 0 Z " fill="#D69EAB" transform="translate(289,121)"/>
<path d="M0 0 C2.97 0.99 5.94 1.98 9 3 C6 5 6 5 3.3125 4.625 C2.549375 4.41875 1.78625 4.2125 1 4 C0.67 2.68 0.34 1.36 0 0 Z " fill="#DCA7B1" transform="translate(230,250)"/>
</svg>
